<?xml version="1.0" encoding="UTF-8"?>
<!DOCTYPE svg PUBLIC "-//W3C//DTD SVG 1.1//EN" "http://www.w3.org/Graphics/SVG/1.1/DTD/svg11.dtd">
<!-- Creator: CorelDRAW -->
<svg xmlns="http://www.w3.org/2000/svg" xml:space="preserve" width="25.4mm" height="7.9374mm" version="1.1" style="shape-rendering:geometricPrecision; text-rendering:geometricPrecision; image-rendering:optimizeQuality; fill-rule:evenodd; clip-rule:evenodd"
viewBox="0 0 2540 793.74"
 xmlns:xlink="http://www.w3.org/1999/xlink"
 xmlns:xodm="http://www.corel.com/coreldraw/odm/2003">
 <defs>
  <style type="text/css">
   <![CDATA[
    .fil1 {fill:#F62A8C}
    .fil0 {fill:#F62A8D}
    .fil4 {fill:#F62B88}
    .fil3 {fill:#F62B8A}
    .fil2 {fill:#F62B8B}
    .fil6 {fill:#F72C85}
    .fil5 {fill:#F72C87}
    .fil7 {fill:#F72D83}
    .fil9 {fill:#F72E7F}
    .fil8 {fill:#F72E81}
    .fil10 {fill:#F82F7C}
    .fil11 {fill:#F8307A}
    .fil13 {fill:#F83176}
    .fil12 {fill:#F83178}
    .fil14 {fill:#F93273}
    .fil15 {fill:#F93371}
    .fil16 {fill:#F9346F}
    .fil18 {fill:#F9356B}
    .fil17 {fill:#F9356D}
    .fil19 {fill:#FA3669}
    .fil20 {fill:#FA3766}
    .fil21 {fill:#FA3864}
    .fil23 {fill:#FA3961}
    .fil22 {fill:#FA3962}
    .fil24 {fill:#FB3A5F}
    .fil25 {fill:#FB3B5D}
    .fil26 {fill:#FB3C5B}
    .fil28 {fill:#FB3D58}
    .fil27 {fill:#FB3D59}
    .fil29 {fill:#FB3E56}
    .fil30 {fill:#FC3F54}
    .fil32 {fill:#FC4051}
    .fil31 {fill:#FC4053}
    .fil33 {fill:#FC4150}
    .fil34 {fill:#FC424F}
    .fil36 {fill:#FC434C}
    .fil35 {fill:#FC434D}
    .fil37 {fill:#FD444B}
    .fil39 {fill:#FD4548}
    .fil38 {fill:#FD454A}
    .fil40 {fill:#FD4647}
    .fil42 {fill:#FD4745}
    .fil41 {fill:#FD4746}
    .fil43 {fill:#FD4844}
    .fil45 {fill:#FD4942}
    .fil44 {fill:#FD4943}
    .fil46 {fill:#FD4A41}
    .fil48 {fill:#FE4B40}
    .fil47 {fill:#FE4B41}
    .fil50 {fill:#FE4C3E}
    .fil49 {fill:#FE4C3F}
    .fil52 {fill:#FE4D3D}
    .fil51 {fill:#FE4D3E}
    .fil53 {fill:#FE4E3C}
    .fil55 {fill:#FE4F3B}
    .fil54 {fill:#FE4F3C}
    .fil56 {fill:#FE503A}
    .fil57 {fill:#FE5139}
    .fil58 {fill:#FE5238}
    .fil59 {fill:#FE5337}
    .fil60 {fill:#FF5337}
    .fil62 {fill:#FF5436}
    .fil61 {fill:#FF5437}
    .fil64 {fill:#FF5535}
    .fil63 {fill:#FF5536}
    .fil65 {fill:#FF5635}
    .fil66 {fill:#FF5734}
    .fil67 {fill:#FF5834}
    .fil68 {fill:#FF5933}
    .fil69 {fill:#FF5A33}
    .fil71 {fill:#FF5B32}
    .fil70 {fill:#FF5B33}
    .fil72 {fill:#FF5C32}
    .fil73 {fill:#FF5D32}
    .fil74 {fill:#FF5E32}
    .fil75 {fill:#FF5F32}
    .fil76 {fill:#FF6032}
    .fil77 {fill:#FF6132}
    .fil78 {fill:#FF6332}
    .fil79 {fill:#FF6433}
    .fil80 {fill:#FF6633}
    .fil81 {fill:#FF6733}
    .fil82 {fill:#FF6934}
    .fil83 {fill:#FF6A34}
    .fil84 {fill:#FF6C35}
    .fil85 {fill:#FF6D35}
    .fil86 {fill:#FF6F36}
    .fil87 {fill:#FF7136}
    .fil88 {fill:#FF7237}
    .fil89 {fill:#FF7438}
    .fil90 {fill:#FF7638}
    .fil91 {fill:#FF7739}
    .fil92 {fill:#FF793A}
    .fil93 {fill:#FF7B3A}
    .fil94 {fill:#FF7C3B}
    .fil95 {fill:#FF7E3C}
    .fil96 {fill:#FF803D}
    .fil97 {fill:#FF813D}
    .fil98 {fill:#FF833E}
    .fil99 {fill:#FF843F}
    .fil100 {fill:#FF8640}
    .fil101 {fill:#FF8741}
    .fil102 {fill:#FF8941}
    .fil103 {fill:#FF8B42}
    .fil104 {fill:#FF8C43}
    .fil105 {fill:#FF8E44}
    .fil106 {fill:#FF8F45}
    .fil107 {fill:#FF9145}
    .fil108 {fill:#FF9246}
    .fil109 {fill:#FF9347}
    .fil110 {fill:#FF9548}
    .fil111 {fill:#FF9648}
    .fil112 {fill:#FF9849}
    .fil113 {fill:#FF994A}
    .fil114 {fill:#FF9A4B}
    .fil115 {fill:#FF9C4C}
    .fil116 {fill:#FF9D4C}
    .fil117 {fill:#FF9E4D}
    .fil118 {fill:#FF9F4E}
    .fil119 {fill:#FFA14E}
    .fil120 {fill:#FFA24F}
    .fil121 {fill:#FFA350}
    .fil122 {fill:#FFA451}
    .fil123 {fill:#FFA551}
    .fil124 {fill:#FFA652}
    .fil125 {fill:#FFA853}
    .fil126 {fill:#FFA953}
    .fil127 {fill:#FFAA54}
    .fil128 {fill:#FFAB55}
    .fil129 {fill:#FFAC55}
    .fil130 {fill:#FFAD56}
    .fil131 {fill:#FFAE56}
    .fil132 {fill:#FFAF57}
    .fil133 {fill:#FFB058}
    .fil134 {fill:#FFB158}
    .fil135 {fill:#FFB259}
    .fil136 {fill:#FFB359}
    .fil137 {fill:#FFB45A}
    .fil138 {fill:#FFB55B}
    .fil139 {fill:#FFB65B}
    .fil140 {fill:#FFB75C}
    .fil141 {fill:#FFB85D}
    .fil142 {fill:#FFB95D}
    .fil143 {fill:#FFB95E}
    .fil144 {fill:#FFBA5E}
    .fil145 {fill:#FFBB5E}
    .fil146 {fill:#FFBC5F}
    .fil147 {fill:#FFBD60}
    .fil148 {fill:#FFBE60}
    .fil149 {fill:#FFBE61}
    .fil150 {fill:#FFBF61}
    .fil151 {fill:#FFC062}
    .fil152 {fill:#FFC162}
    .fil153 {fill:#FFC163}
    .fil154 {fill:#FFC263}
    .fil155 {fill:#FFC363}
    .fil156 {fill:#FFC364}
    .fil157 {fill:#FFC464}
    .fil158 {fill:#FFC465}
    .fil159 {fill:#FFC565}
    .fil160 {fill:#FFC666}
    .fil161 {fill:#FFC766}
    .fil162 {fill:#FFC867}
    .fil163 {fill:#FFC967}
    .fil164 {fill:#FFC968}
    .fil165 {fill:#FFCA68}
    .fil166 {fill:#FFCB69}
    .fil167 {fill:#FFCC69}
    .fil168 {fill:#FFCC6A}
    .fil169 {fill:#FFCD6A}
    .fil170 {fill:#FFCE6B}
    .fil172 {fill:white}
    .fil171 {fill:white;fill-rule:nonzero}
   ]]>
  </style>
    <clipPath id="id0">
     <path d="M111.4 0l2317.2 0c61.51,0 111.4,45.5 111.4,101.6l0 590.55c0,56.09 -49.89,101.59 -111.4,101.59l-2317.2 0.01c-61.5,-0.01 -111.39,-45.51 -111.39,-101.61l-0.01 -590.54c0.01,-56.1 49.9,-101.6 111.41,-101.6z"/>
    </clipPath>
 </defs>
 <g id="Слой_x0020_1">
  <metadata id="CorelCorpID_0Corel-Layer"/>
  <g>
   <g style="clip-path:url(#id0)">
    <polygon class="fil0" points="2693.12,44.15 2577.36,576.45 6.15,17.28 121.91,-515.02 "/>
    <polygon id="_1" class="fil0" points="2577.75,574.65 2576.58,580.06 5.36,20.88 6.54,15.47 "/>
    <polygon id="_2" class="fil1" points="2576.97,578.25 2575.79,583.66 4.58,24.49 5.76,19.08 "/>
    <polygon id="_3" class="fil2" points="2576.18,581.86 2575.01,587.27 3.79,28.1 4.97,22.69 "/>
    <polygon id="_4" class="fil3" points="2575.4,585.47 2574.22,590.88 3.01,31.7 4.19,26.29 "/>
    <polygon id="_5" class="fil4" points="2574.61,589.07 2573.44,594.48 2.23,35.31 3.4,29.9 "/>
    <polygon id="_6" class="fil5" points="2573.83,592.68 2572.65,598.09 1.44,38.92 2.62,33.51 "/>
    <polygon id="_7" class="fil6" points="2573.05,596.29 2571.87,601.7 0.66,42.52 1.83,37.11 "/>
    <polygon id="_8" class="fil7" points="2572.26,599.89 2571.08,605.3 -0.13,46.13 1.05,40.72 "/>
    <polygon id="_9" class="fil8" points="2571.48,603.5 2570.3,608.91 -0.91,49.74 0.26,44.33 "/>
    <polygon id="_10" class="fil9" points="2570.69,607.11 2569.52,612.52 -1.7,53.35 -0.52,47.93 "/>
    <polygon id="_11" class="fil10" points="2569.91,610.71 2568.73,616.13 -2.48,56.95 -1.3,51.54 "/>
    <polygon id="_12" class="fil11" points="2569.12,614.32 2567.95,619.73 -3.26,60.56 -2.09,55.15 "/>
    <polygon id="_13" class="fil12" points="2568.34,617.93 2567.16,623.34 -4.05,64.17 -2.87,58.76 "/>
    <polygon id="_14" class="fil13" points="2567.55,621.54 2566.38,626.95 -4.83,67.77 -3.66,62.36 "/>
    <polygon id="_15" class="fil14" points="2566.77,625.14 2565.59,630.55 -5.62,71.38 -4.44,65.97 "/>
    <polygon id="_16" class="fil15" points="2565.99,628.75 2564.81,634.16 -6.4,74.99 -5.23,69.58 "/>
    <polygon id="_17" class="fil16" points="2565.2,632.36 2564.03,637.77 -7.19,78.59 -6.01,73.18 "/>
    <polygon id="_18" class="fil17" points="2564.42,635.96 2563.24,641.37 -7.97,82.2 -6.79,76.79 "/>
    <polygon id="_19" class="fil18" points="2563.63,639.57 2562.46,644.98 -8.76,85.81 -7.58,80.4 "/>
    <polygon id="_20" class="fil19" points="2562.85,643.18 2561.67,648.59 -9.54,89.41 -8.36,84 "/>
    <polygon id="_21" class="fil20" points="2562.06,646.78 2560.89,652.19 -10.32,93.02 -9.15,87.61 "/>
    <polygon id="_22" class="fil21" points="2561.28,650.39 2560.1,655.8 -11.11,96.63 -9.93,91.22 "/>
    <polygon id="_23" class="fil22" points="2560.5,654 2559.32,659.41 -11.89,100.24 -10.72,94.82 "/>
    <polygon id="_24" class="fil23" points="2559.71,657.6 2558.53,663.02 -12.68,103.84 -11.5,98.43 "/>
    <polygon id="_25" class="fil24" points="2558.93,661.21 2557.75,666.62 -13.46,107.45 -12.29,102.04 "/>
    <polygon id="_26" class="fil25" points="2558.14,664.82 2556.97,670.23 -14.25,111.06 -13.07,105.65 "/>
    <polygon id="_27" class="fil26" points="2557.36,668.43 2556.18,673.84 -15.03,114.66 -13.85,109.25 "/>
    <polygon id="_28" class="fil27" points="2556.57,672.03 2555.4,677.44 -15.82,118.27 -14.64,112.86 "/>
    <polygon id="_29" class="fil28" points="2555.79,675.64 2554.61,681.05 -16.6,121.88 -15.42,116.47 "/>
    <polygon id="_30" class="fil29" points="2555,679.25 2553.83,684.66 -17.38,125.48 -16.21,120.07 "/>
    <polygon id="_31" class="fil30" points="2554.22,682.85 2553.04,688.26 -18.17,129.09 -16.99,123.68 "/>
    <polygon id="_32" class="fil31" points="2553.44,686.46 2552.26,691.87 -18.95,132.7 -17.78,127.29 "/>
    <polygon id="_33" class="fil32" points="2552.65,690.07 2551.47,695.48 -19.74,136.3 -18.56,130.89 "/>
    <polygon id="_34" class="fil33" points="2551.87,693.67 2550.69,699.08 -20.52,139.91 -19.35,134.5 "/>
    <polygon id="_35" class="fil34" points="2551.08,697.28 2549.91,702.69 -21.31,143.52 -20.13,138.11 "/>
    <polygon id="_36" class="fil35" points="2550.3,700.89 2549.12,706.3 -22.09,147.13 -20.91,141.71 "/>
    <polygon id="_37" class="fil36" points="2549.51,704.49 2548.34,709.91 -22.88,150.73 -21.7,145.32 "/>
    <polygon id="_38" class="fil37" points="2548.73,708.1 2547.55,713.51 -23.66,154.34 -22.48,148.93 "/>
    <polygon id="_39" class="fil38" points="2547.94,711.71 2546.77,717.12 -24.44,157.95 -23.27,152.54 "/>
    <polygon id="_40" class="fil39" points="2547.16,715.32 2545.98,720.73 -25.23,161.55 -24.05,156.14 "/>
    <polygon id="_41" class="fil40" points="2546.38,718.92 2545.2,724.33 -26.01,165.16 -24.84,159.75 "/>
    <polygon id="_42" class="fil41" points="2545.59,722.53 2544.41,727.94 -26.8,168.77 -25.62,163.36 "/>
    <polygon id="_43" class="fil42" points="2544.81,726.14 2543.63,731.55 -27.58,172.37 -26.41,166.96 "/>
    <polygon id="_44" class="fil43" points="2544.02,729.74 2542.85,735.15 -28.37,175.98 -27.19,170.57 "/>
    <polygon id="_45" class="fil44" points="2543.24,733.35 2542.06,738.76 -29.15,179.59 -27.97,174.18 "/>
    <polygon id="_46" class="fil45" points="2542.45,736.96 2541.28,742.37 -29.93,183.19 -28.76,177.78 "/>
    <polygon id="_47" class="fil46" points="2541.67,740.56 2540.49,745.97 -30.72,186.8 -29.54,181.39 "/>
    <polygon id="_48" class="fil47" points="2540.88,744.17 2539.71,749.58 -31.5,190.41 -30.33,185 "/>
    <polygon id="_49" class="fil48" points="2540.1,747.78 2538.92,753.19 -32.29,194.02 -31.11,188.6 "/>
    <polygon id="_50" class="fil49" points="2539.32,751.38 2538.14,756.8 -33.07,197.62 -31.9,192.21 "/>
    <polygon id="_51" class="fil50" points="2538.53,754.99 2537.36,760.4 -33.86,201.23 -32.68,195.82 "/>
    <polygon id="_52" class="fil51" points="2537.75,758.6 2536.57,764.01 -34.64,204.84 -33.46,199.43 "/>
    <polygon id="_53" class="fil52" points="2536.96,762.21 2535.79,767.62 -35.43,208.44 -34.25,203.03 "/>
    <polygon id="_54" class="fil53" points="2536.18,765.81 2535,771.22 -36.21,212.05 -35.03,206.64 "/>
    <polygon id="_55" class="fil54" points="2535.39,769.42 2534.22,774.83 -36.99,215.66 -35.82,210.25 "/>
    <polygon id="_56" class="fil55" points="2534.61,773.03 2533.43,778.44 -37.78,219.26 -36.6,213.85 "/>
    <polygon id="_57" class="fil56" points="2533.83,776.63 2532.65,782.04 -38.56,222.87 -37.39,217.46 "/>
    <polygon id="_58" class="fil56" points="2533.04,780.24 2531.86,785.65 -39.35,226.48 -38.17,221.07 "/>
    <polygon id="_59" class="fil57" points="2532.26,783.85 2531.08,789.26 -40.13,230.08 -38.96,224.67 "/>
    <polygon id="_60" class="fil57" points="2531.47,787.45 2530.3,792.86 -40.92,233.69 -39.74,228.28 "/>
    <polygon id="_61" class="fil58" points="2530.69,791.06 2529.51,796.47 -41.7,237.3 -40.52,231.89 "/>
    <polygon id="_62" class="fil58" points="2529.9,794.67 2528.73,800.08 -42.49,240.9 -41.31,235.49 "/>
    <polygon id="_63" class="fil59" points="2529.12,798.27 2527.94,803.68 -43.27,244.51 -42.09,239.1 "/>
    <polygon id="_64" class="fil60" points="2528.33,801.88 2527.16,807.29 -44.05,248.12 -42.88,242.71 "/>
    <polygon id="_65" class="fil61" points="2527.55,805.49 2526.37,810.9 -44.84,251.73 -43.66,246.32 "/>
    <polygon id="_66" class="fil62" points="2526.77,809.1 2525.59,814.51 -45.62,255.33 -44.45,249.92 "/>
    <polygon id="_67" class="fil63" points="2525.98,812.7 2524.8,818.11 -46.41,258.94 -45.23,253.53 "/>
    <polygon id="_68" class="fil63" points="2525.2,816.31 2524.02,821.72 -47.19,262.55 -46.02,257.14 "/>
    <polygon id="_69" class="fil64" points="2524.41,819.92 2523.24,825.33 -47.98,266.15 -46.8,260.74 "/>
    <polygon id="_70" class="fil65" points="2523.63,823.52 2522.45,828.93 -48.76,269.76 -47.58,264.35 "/>
    <polygon id="_71" class="fil65" points="2522.84,827.13 2521.67,832.54 -49.55,273.37 -48.37,267.96 "/>
    <polygon id="_72" class="fil66" points="2522.06,830.74 2520.88,836.15 -50.33,276.97 -49.15,271.56 "/>
    <polygon id="_73" class="fil66" points="2521.27,834.34 2520.1,839.75 -51.11,280.58 -49.94,275.17 "/>
    <polygon id="_74" class="fil67" points="2520.49,837.95 2519.31,843.36 -51.9,284.19 -50.72,278.78 "/>
    <polygon id="_75" class="fil67" points="2519.71,841.56 2518.53,846.97 -52.68,287.79 -51.51,282.38 "/>
    <polygon id="_76" class="fil67" points="2518.92,845.16 2517.74,850.57 -53.47,291.4 -52.29,285.99 "/>
    <polygon id="_77" class="fil68" points="2518.14,848.77 2516.96,854.18 -54.25,295.01 -53.08,289.6 "/>
    <polygon id="_78" class="fil68" points="2517.35,852.38 2516.18,857.79 -55.04,298.62 -53.86,293.21 "/>
    <polygon id="_79" class="fil69" points="2516.57,855.99 2515.39,861.4 -55.82,302.22 -54.64,296.81 "/>
    <polygon id="_80" class="fil69" points="2515.78,859.59 2514.61,865 -56.61,305.83 -55.43,300.42 "/>
    <polygon id="_81" class="fil69" points="2515,863.2 2513.82,868.61 -57.39,309.44 -56.21,304.03 "/>
    <polygon id="_82" class="fil70" points="2514.21,866.81 2513.04,872.22 -58.17,313.04 -57,307.63 "/>
    <polygon id="_83" class="fil70" points="2513.43,870.41 2512.25,875.82 -58.96,316.65 -57.78,311.24 "/>
    <polygon id="_84" class="fil71" points="2512.65,874.02 2511.47,879.43 -59.74,320.26 -58.57,314.85 "/>
    <polygon id="_85" class="fil72" points="2511.86,877.63 2510.69,883.04 -60.53,323.86 -59.35,318.45 "/>
    <polygon id="_86" class="fil72" points="2511.08,881.23 2509.9,886.64 -61.31,327.47 -60.13,322.06 "/>
    <polygon id="_87" class="fil73" points="2510.29,884.84 2509.12,890.25 -62.1,331.08 -60.92,325.67 "/>
    <polygon id="_88" class="fil73" points="2509.51,888.45 2508.33,893.86 -62.88,334.68 -61.7,329.27 "/>
    <polygon id="_89" class="fil73" points="2508.72,892.05 2507.55,897.46 -63.66,338.29 -62.49,332.88 "/>
    <polygon id="_90" class="fil74" points="2507.94,895.66 2506.76,901.07 -64.45,341.9 -63.27,336.49 "/>
    <polygon id="_91" class="fil74" points="2507.16,899.27 2505.98,904.68 -65.23,345.51 -64.06,340.1 "/>
    <polygon id="_92" class="fil74" points="2506.37,902.88 2505.19,908.29 -66.02,349.11 -64.84,343.7 "/>
    <polygon id="_93" class="fil75" points="2505.59,906.48 2504.41,911.89 -66.8,352.72 -65.63,347.31 "/>
    <polygon id="_94" class="fil75" points="2504.8,910.09 2503.63,915.5 -67.59,356.33 -66.41,350.92 "/>
    <polygon id="_95" class="fil76" points="2504.02,913.7 2502.84,919.11 -68.37,359.93 -67.19,354.52 "/>
    <polygon id="_96" class="fil77" points="2503.23,917.3 2502.06,922.71 -69.16,363.54 -67.98,358.13 "/>
    <polygon id="_97" class="fil78" points="2502.45,920.91 2501.27,926.32 -69.94,367.15 -68.76,361.74 "/>
    <polygon id="_98" class="fil79" points="2501.66,924.52 2500.49,929.93 -70.72,370.75 -69.55,365.34 "/>
    <polygon id="_99" class="fil80" points="2500.88,928.12 2499.7,933.53 -71.51,374.36 -70.33,368.95 "/>
    <polygon id="_100" class="fil81" points="2500.1,931.73 2498.92,937.14 -72.29,377.97 -71.12,372.56 "/>
    <polygon id="_101" class="fil82" points="2499.31,935.34 2498.13,940.75 -73.08,381.57 -71.9,376.16 "/>
    <polygon id="_102" class="fil83" points="2498.53,938.94 2497.35,944.35 -73.86,385.18 -72.69,379.77 "/>
    <polygon id="_103" class="fil84" points="2497.74,942.55 2496.57,947.96 -74.65,388.79 -73.47,383.38 "/>
    <polygon id="_104" class="fil85" points="2496.96,946.16 2495.78,951.57 -75.43,392.4 -74.25,386.98 "/>
    <polygon id="_105" class="fil86" points="2496.17,949.76 2495,955.18 -76.22,396 -75.04,390.59 "/>
    <polygon id="_106" class="fil87" points="2495.39,953.37 2494.21,958.78 -77,399.61 -75.82,394.2 "/>
    <polygon id="_107" class="fil88" points="2494.6,956.98 2493.43,962.39 -77.78,403.22 -76.61,397.81 "/>
    <polygon id="_108" class="fil89" points="2493.82,960.59 2492.64,966 -78.57,406.82 -77.39,401.41 "/>
    <polygon id="_109" class="fil90" points="2493.04,964.19 2491.86,969.6 -79.35,410.43 -78.18,405.02 "/>
    <polygon id="_110" class="fil91" points="2492.25,967.8 2491.07,973.21 -80.14,414.04 -78.96,408.63 "/>
    <polygon id="_111" class="fil92" points="2491.47,971.41 2490.29,976.82 -80.92,417.64 -79.75,412.23 "/>
    <polygon id="_112" class="fil93" points="2490.68,975.01 2489.51,980.42 -81.71,421.25 -80.53,415.84 "/>
    <polygon id="_113" class="fil94" points="2489.9,978.62 2488.72,984.03 -82.49,424.86 -81.31,419.45 "/>
    <polygon id="_114" class="fil95" points="2489.11,982.23 2487.94,987.64 -83.28,428.46 -82.1,423.05 "/>
    <polygon id="_115" class="fil96" points="2488.33,985.83 2487.15,991.24 -84.06,432.07 -82.88,426.66 "/>
    <polygon id="_116" class="fil97" points="2487.54,989.44 2486.37,994.85 -84.84,435.68 -83.67,430.27 "/>
    <polygon id="_117" class="fil98" points="2486.76,993.05 2485.58,998.46 -85.63,439.29 -84.45,433.87 "/>
    <polygon id="_118" class="fil99" points="2485.98,996.65 2484.8,1002.07 -86.41,442.89 -85.24,437.48 "/>
    <polygon id="_119" class="fil100" points="2485.19,1000.26 2484.02,1005.67 -87.2,446.5 -86.02,441.09 "/>
    <polygon id="_120" class="fil101" points="2484.41,1003.87 2483.23,1009.28 -87.98,450.11 -86.8,444.7 "/>
    <polygon id="_121" class="fil102" points="2483.62,1007.48 2482.45,1012.89 -88.77,453.71 -87.59,448.3 "/>
    <polygon id="_122" class="fil103" points="2482.84,1011.08 2481.66,1016.49 -89.55,457.32 -88.37,451.91 "/>
    <polygon id="_123" class="fil104" points="2482.05,1014.69 2480.88,1020.1 -90.33,460.93 -89.16,455.52 "/>
    <polygon id="_124" class="fil105" points="2481.27,1018.3 2480.09,1023.71 -91.12,464.53 -89.94,459.12 "/>
    <polygon id="_125" class="fil106" points="2480.49,1021.9 2479.31,1027.31 -91.9,468.14 -90.73,462.73 "/>
    <polygon id="_126" class="fil107" points="2479.7,1025.51 2478.52,1030.92 -92.69,471.75 -91.51,466.34 "/>
    <polygon id="_127" class="fil108" points="2478.92,1029.12 2477.74,1034.53 -93.47,475.35 -92.3,469.94 "/>
    <polygon id="_128" class="fil109" points="2478.13,1032.72 2476.96,1038.13 -94.26,478.96 -93.08,473.55 "/>
    <polygon id="_129" class="fil110" points="2477.35,1036.33 2476.17,1041.74 -95.04,482.57 -93.86,477.16 "/>
    <polygon id="_130" class="fil111" points="2476.56,1039.94 2475.39,1045.35 -95.83,486.18 -94.65,480.76 "/>
    <polygon id="_131" class="fil112" points="2475.78,1043.54 2474.6,1048.96 -96.61,489.78 -95.43,484.37 "/>
    <polygon id="_132" class="fil113" points="2474.99,1047.15 2473.82,1052.56 -97.39,493.39 -96.22,487.98 "/>
    <polygon id="_133" class="fil114" points="2474.21,1050.76 2473.03,1056.17 -98.18,497 -97,491.59 "/>
    <polygon id="_134" class="fil115" points="2473.43,1054.37 2472.25,1059.78 -98.96,500.6 -97.79,495.19 "/>
    <polygon id="_135" class="fil116" points="2472.64,1057.97 2471.46,1063.38 -99.75,504.21 -98.57,498.8 "/>
    <polygon id="_136" class="fil117" points="2471.86,1061.58 2470.68,1066.99 -100.53,507.82 -99.36,502.41 "/>
    <polygon id="_137" class="fil118" points="2471.07,1065.19 2469.9,1070.6 -101.32,511.42 -100.14,506.01 "/>
    <polygon id="_138" class="fil119" points="2470.29,1068.79 2469.11,1074.2 -102.1,515.03 -100.92,509.62 "/>
    <polygon id="_139" class="fil120" points="2469.5,1072.4 2468.33,1077.81 -102.89,518.64 -101.71,513.23 "/>
    <polygon id="_140" class="fil121" points="2468.72,1076.01 2467.54,1081.42 -103.67,522.24 -102.49,516.83 "/>
    <polygon id="_141" class="fil122" points="2467.93,1079.61 2466.76,1085.02 -104.45,525.85 -103.28,520.44 "/>
    <polygon id="_142" class="fil123" points="2467.15,1083.22 2465.97,1088.63 -105.24,529.46 -104.06,524.05 "/>
    <polygon id="_143" class="fil124" points="2466.37,1086.83 2465.19,1092.24 -106.02,533.07 -104.85,527.65 "/>
    <polygon id="_144" class="fil125" points="2465.58,1090.43 2464.4,1095.84 -106.81,536.67 -105.63,531.26 "/>
    <polygon id="_145" class="fil126" points="2464.8,1094.04 2463.62,1099.45 -107.59,540.28 -106.42,534.87 "/>
    <polygon id="_146" class="fil127" points="2464.01,1097.65 2462.84,1103.06 -108.38,543.89 -107.2,538.48 "/>
    <polygon id="_147" class="fil128" points="2463.23,1101.26 2462.05,1106.67 -109.16,547.49 -107.98,542.08 "/>
    <polygon id="_148" class="fil129" points="2462.44,1104.86 2461.27,1110.27 -109.95,551.1 -108.77,545.69 "/>
    <polygon id="_149" class="fil130" points="2461.66,1108.47 2460.48,1113.88 -110.73,554.71 -109.55,549.3 "/>
    <polygon id="_150" class="fil131" points="2460.87,1112.08 2459.7,1117.49 -111.51,558.31 -110.34,552.9 "/>
    <polygon id="_151" class="fil132" points="2460.09,1115.68 2458.91,1121.09 -112.3,561.92 -111.12,556.51 "/>
    <polygon id="_152" class="fil133" points="2459.31,1119.29 2458.13,1124.7 -113.08,565.53 -111.91,560.12 "/>
    <polygon id="_153" class="fil134" points="2458.52,1122.9 2457.35,1128.31 -113.87,569.13 -112.69,563.72 "/>
    <polygon id="_154" class="fil135" points="2457.74,1126.5 2456.56,1131.91 -114.65,572.74 -113.47,567.33 "/>
    <polygon id="_155" class="fil136" points="2456.95,1130.11 2455.78,1135.52 -115.44,576.35 -114.26,570.94 "/>
    <polygon id="_156" class="fil137" points="2456.17,1133.72 2454.99,1139.13 -116.22,579.95 -115.04,574.54 "/>
    <polygon id="_157" class="fil137" points="2455.38,1137.32 2454.21,1142.73 -117,583.56 -115.83,578.15 "/>
    <polygon id="_158" class="fil138" points="2454.6,1140.93 2453.42,1146.34 -117.79,587.17 -116.61,581.76 "/>
    <polygon id="_159" class="fil139" points="2453.82,1144.54 2452.64,1149.95 -118.57,590.78 -117.4,585.37 "/>
    <polygon id="_160" class="fil140" points="2453.03,1148.15 2451.85,1153.56 -119.36,594.38 -118.18,588.97 "/>
    <polygon id="_161" class="fil141" points="2452.25,1151.75 2451.07,1157.16 -120.14,597.99 -118.97,592.58 "/>
    <polygon id="_162" class="fil142" points="2451.46,1155.36 2450.29,1160.77 -120.93,601.6 -119.75,596.19 "/>
    <polygon id="_163" class="fil143" points="2450.68,1158.97 2449.5,1164.38 -121.71,605.2 -120.53,599.79 "/>
    <polygon id="_164" class="fil144" points="2449.89,1162.57 2448.72,1167.98 -122.5,608.81 -121.32,603.4 "/>
    <polygon id="_165" class="fil145" points="2449.11,1166.18 2447.93,1171.59 -123.28,612.42 -122.1,607.01 "/>
    <polygon id="_166" class="fil146" points="2448.32,1169.79 2447.15,1175.2 -124.06,616.02 -122.89,610.61 "/>
    <polygon id="_167" class="fil146" points="2447.54,1173.39 2446.36,1178.8 -124.85,619.63 -123.67,614.22 "/>
    <polygon id="_168" class="fil147" points="2446.76,1177 2445.58,1182.41 -125.63,623.24 -124.46,617.83 "/>
    <polygon id="_169" class="fil148" points="2445.97,1180.61 2444.79,1186.02 -126.42,626.84 -125.24,621.43 "/>
    <polygon id="_170" class="fil149" points="2445.19,1184.21 2444.01,1189.62 -127.2,630.45 -126.03,625.04 "/>
    <polygon id="_171" class="fil150" points="2444.4,1187.82 2443.23,1193.23 -127.99,634.06 -126.81,628.65 "/>
    <polygon id="_172" class="fil151" points="2443.62,1191.43 2442.44,1196.84 -128.77,637.67 -127.59,632.26 "/>
    <polygon id="_173" class="fil151" points="2442.83,1195.04 2441.66,1200.45 -129.56,641.27 -128.38,635.86 "/>
    <polygon id="_174" class="fil152" points="2442.05,1198.64 2440.87,1204.05 -130.34,644.88 -129.16,639.47 "/>
    <polygon id="_175" class="fil153" points="2441.26,1202.25 2440.09,1207.66 -131.12,648.49 -129.95,643.08 "/>
    <polygon id="_176" class="fil154" points="2440.48,1205.86 2439.3,1211.27 -131.91,652.09 -130.73,646.68 "/>
    <polygon id="_177" class="fil155" points="2439.7,1209.46 2438.52,1214.87 -132.69,655.7 -131.52,650.29 "/>
    <polygon id="_178" class="fil156" points="2438.91,1213.07 2437.73,1218.48 -133.48,659.31 -132.3,653.9 "/>
    <polygon id="_179" class="fil157" points="2438.13,1216.68 2436.95,1222.09 -134.26,662.91 -133.09,657.5 "/>
    <polygon id="_180" class="fil158" points="2437.34,1220.28 2436.17,1225.69 -135.05,666.52 -133.87,661.11 "/>
    <polygon id="_181" class="fil159" points="2436.56,1223.89 2435.38,1229.3 -135.83,670.13 -134.65,664.72 "/>
    <polygon id="_182" class="fil159" points="2435.77,1227.5 2434.6,1232.91 -136.62,673.73 -135.44,668.32 "/>
    <polygon id="_183" class="fil160" points="2434.99,1231.1 2433.81,1236.51 -137.4,677.34 -136.22,671.93 "/>
    <polygon id="_184" class="fil160" points="2434.2,1234.71 2433.03,1240.12 -138.18,680.95 -137.01,675.54 "/>
    <polygon id="_185" class="fil161" points="2433.42,1238.32 2432.24,1243.73 -138.97,684.56 -137.79,679.15 "/>
    <polygon id="_186" class="fil161" points="2432.64,1241.93 2431.46,1247.34 -139.75,688.16 -138.58,682.75 "/>
    <polygon id="_187" class="fil162" points="2431.85,1245.53 2430.68,1250.94 -140.54,691.77 -139.36,686.36 "/>
    <polygon id="_188" class="fil162" points="2431.07,1249.14 2429.89,1254.55 -141.32,695.38 -140.14,689.97 "/>
    <polygon id="_189" class="fil163" points="2430.28,1252.75 2429.11,1258.16 -142.11,698.98 -140.93,693.57 "/>
    <polygon id="_190" class="fil164" points="2429.5,1256.35 2428.32,1261.76 -142.89,702.59 -141.71,697.18 "/>
    <polygon id="_191" class="fil164" points="2428.71,1259.96 2427.54,1265.37 -143.67,706.2 -142.5,700.79 "/>
    <polygon id="_192" class="fil165" points="2427.93,1263.57 2426.75,1268.98 -144.46,709.8 -143.28,704.39 "/>
    <polygon id="_193" class="fil165" points="2427.15,1267.17 2425.97,1272.58 -145.24,713.41 -144.07,708 "/>
    <polygon id="_194" class="fil166" points="2426.36,1270.78 2425.18,1276.19 -146.03,717.02 -144.85,711.61 "/>
    <polygon id="_195" class="fil166" points="2425.58,1274.39 2424.4,1279.8 -146.81,720.62 -145.64,715.21 "/>
    <polygon id="_196" class="fil166" points="2424.79,1277.99 2423.62,1283.4 -147.6,724.23 -146.42,718.82 "/>
    <polygon id="_197" class="fil167" points="2424.01,1281.6 2422.83,1287.01 -148.38,727.84 -147.2,722.43 "/>
    <polygon id="_198" class="fil168" points="2423.22,1285.21 2422.05,1290.62 -149.17,731.45 -147.99,726.03 "/>
    <polygon id="_199" class="fil168" points="2422.44,1288.81 2421.26,1294.23 -149.95,735.05 -148.77,729.64 "/>
    <polygon id="_200" class="fil169" points="2421.65,1292.42 2420.48,1297.83 -150.73,738.66 -149.56,733.25 "/>
    <polygon id="_201" class="fil169" points="2420.87,1296.03 2419.69,1301.44 -151.52,742.27 -150.34,736.86 "/>
    <polygon id="_202" class="fil169" points="2420.09,1299.64 2418.91,1305.05 -152.3,745.87 -151.13,740.46 "/>
    <polygon id="_203" class="fil170" points="2419.3,1303.24 2418.12,1308.65 -153.09,749.48 -151.91,744.07 "/>
    <polygon id="_204" class="fil170" points="2418.52,1306.85 2417.34,1312.26 -153.87,753.09 -152.7,747.68 "/>
    <polygon id="_205" class="fil170" points="2417.73,1310.46 2418.1,1308.76 -153.11,749.59 -153.48,751.28 "/>
   </g>
  </g>
  <path class="fil171" d="M884.31 431.24c-2.28,-8.74 -17.1,-9.12 -19.37,-9.12 -29.25,0 -51.28,26.97 -51.28,53.56 0,10.25 3.04,20.13 11.02,28.48 13.29,14.44 35.32,20.89 57.35,20.89 24.31,0 51.27,-7.97 65.71,-20.51 28.1,-23.92 42.54,-60.39 42.54,-101.79 0,-38.36 -3.04,-74.06 -3.04,-109.77 0,-31.9 2.28,-61.15 11.39,-74.44 0.38,-0.76 0.76,-1.14 0.76,-1.9 0,-5.32 -16.33,-9.12 -33.04,-9.12 -13.3,0 -27.35,2.66 -36.08,9.5 -11.4,8.74 -29.25,28.49 -44.06,54.69 -13.68,24.31 -24.69,51.28 -24.69,77.11 0,30.38 17.47,49.37 33.8,59.63 7.98,-3.42 25.83,-17.47 25.83,-31.15 0,-2.27 -0.38,-4.17 -1.52,-6.45 -8.36,-16.71 -20.89,-27.73 -20.89,-45.2 0,-36.46 26.97,-69.89 49,-93.06 -4.18,23.55 -5.32,45.58 -5.32,65.71 0,15.57 0.38,31.91 0.76,47.48 0.38,12.91 0.76,29.25 0.76,40.26 0,7.22 0,14.43 -0.38,20.13 -2.28,37.98 -7.98,72.17 -27.73,85.46 -7.21,4.94 -16.71,7.22 -23.93,7.22 -20.13,0 -38.74,-14.82 -38.74,-33.05 0,-14.43 9.12,-29.24 31.15,-34.56zm284.1 53.17c-11.01,0 -11.39,-16.71 -11.39,-28.86 0,-15.96 2.28,-34.19 2.66,-40.64 1.14,-13.68 2.66,-29.25 2.66,-42.92 0,-9.12 -0.76,-17.47 -2.66,-23.93 -4.94,-15.95 -25.07,-30.01 -43.68,-30.01 -6.84,0 -13.29,1.9 -18.99,6.08 -7.6,5.32 -15.95,23.17 -23.93,42.54 -9.5,23.17 -15.95,47.86 -17.85,55.07 0,0.76 -0.38,1.14 -0.38,1.52 0,-13.29 3.8,-37.6 3.8,-58.49 0,-9.88 -0.38,-18.99 -2.66,-23.93 -6.08,-14.05 -18.61,-21.65 -30.01,-21.65 -2.28,0 -4.56,0.38 -6.45,0.76 0.75,5.32 1.13,11.78 1.13,19.75 0,16.33 -1.89,38.36 -3.41,59.25 -1.52,17.1 -3.04,36.47 -3.04,48.62 0,6.46 0.38,12.91 1.52,19.37 4.17,25.83 22.79,42.54 31.52,42.54 2.66,0 4.56,-1.52 4.56,-5.32l0 -2.65c0,-11.4 11.01,-51.66 23.93,-87.74 6.84,-20.13 14.81,-39.12 21.65,-51.66 5.32,-9.49 10.25,-15.19 13.67,-15.19 6.46,0 8.36,7.97 8.36,18.99 0,9.88 -1.52,22.03 -2.28,32.28 -1.14,14.44 -2.66,29.25 -2.66,43.3 0,11.02 1.14,22.03 4.18,32.29 9.87,30.38 37.22,35.7 47.86,35.7 6.07,0 13.67,-3.42 20.89,-9.11 11.01,-8.36 19.75,-20.89 23.54,-31.53 1.14,-3.04 1.9,-6.46 1.9,-8.73 0,-9.5 -6.07,-14.82 -10.63,-15.58 -1.9,11.78 -11.02,25.83 -20.51,33.81 -4.56,3.79 -9.12,6.07 -13.3,6.07zm58.88 -166.36c-1.14,3.42 -1.52,6.84 -1.52,10.64 0,4.56 0.76,9.49 1.9,14.43 -3.42,17.09 -8.36,34.94 -13.67,51.66 -4.94,15.95 -10.64,30 -15.96,41.78 -1.13,-1.14 -1.89,-2.28 -2.27,-3.04 -10.64,3.8 -14.06,13.67 -14.06,23.93 0,6.07 1.14,12.15 3.8,17.47 15.57,31.14 58.87,40.26 90.02,40.26 18.99,0 48.24,-8.74 67.23,-23.93 9.87,-7.98 17.85,-17.85 17.85,-31.52 0,-10.64 -6.46,-13.68 -10.64,-15.2 -4.18,11.02 -10.25,20.51 -20.51,28.87 -11.01,8.73 -16.71,11.77 -25.07,16.71 9.5,-18.23 12.54,-32.28 12.54,-42.92 0,-27.73 -12.54,-49 -23.93,-71.78 0,0 -8.36,-15.96 -15.19,-28.49 -1.9,-3.42 -2.66,-6.84 -2.66,-10.26 0,-5.31 1.9,-11.39 4.94,-15.19 3.79,-4.94 12.91,-6.08 12.91,-11.01 0,-3.04 -3.8,-6.08 -9.12,-7.6 -7.97,-2.28 -18.61,-3.42 -21.27,-3.42 -16.33,0 -30.76,5.7 -35.32,18.61zm4.18 98.76c4.18,-12.16 7.98,-24.69 11.39,-36.85 6.46,11.78 12.16,23.93 17.1,36.47 4.55,11.39 11.77,33.04 11.77,49.37 0,9.12 -2.28,16.71 -8.74,20.13 -2.27,1.14 -4.55,1.52 -7.21,1.52 -16.33,0 -41.4,-16.33 -43.3,-24.31 3.42,-11.01 12.91,-28.86 18.99,-46.33zm163.32 91.91c23.17,0 44.44,-12.15 53.94,-37.6 1.89,-4.94 2.27,-8.74 2.27,-11.77 0,-10.64 -6.45,-15.58 -10.63,-15.96 -3.8,22.03 -22.79,42.54 -37.98,42.54 -3.42,0 -6.46,-0.76 -9.12,-3.04 -6.83,-5.31 -9.87,-23.54 -9.87,-48.23 0,-21.65 1.9,-47.86 5.31,-78.25 1.52,-7.59 2.66,-15.57 3.42,-23.16 8.74,-0.38 16.71,-1.14 22.41,-2.28 12.92,-2.28 17.47,-6.84 17.47,-12.92 0,-1.9 -0.38,-4.18 -1.14,-6.07 -4.17,0.75 -10.25,1.13 -17.47,1.13 -6.07,0 -12.53,-0.38 -19.75,-0.38 0.38,-6.83 0.38,-12.91 0.38,-18.61 0,-10.25 -0.38,-17.09 -1.14,-20.13 -6.07,-25.44 -20.13,-36.08 -31.14,-36.08 -3.8,0 -7.22,1.14 -9.5,3.42 -3.8,11.77 -3.8,22.79 -3.8,41.02 0,12.53 0,20.89 -0.38,31.14 -10.25,0.38 -18.99,1.14 -24.3,2.66 -2.28,0.76 -3.04,3.42 -3.04,6.46 0,4.56 1.52,9.5 1.52,9.5 1.89,0 12.15,0.76 25.44,1.14 -0.38,4.93 -0.76,11.39 -0.76,15.57 -1.52,30.38 -2.65,60.01 -2.65,82.8 0,19.37 0.75,33.04 3.41,40.64 6.84,19.75 19.75,36.46 47.1,36.46zm191.81 -25.83c-5.69,-2.65 -7.59,-16.33 -7.59,-34.18 0,-22.03 2.66,-51.28 4.93,-72.92 1.14,-11.4 1.9,-20.9 1.9,-24.69 -0.38,-16.72 -21.65,-30.39 -33.42,-30.39 -4.18,0 -6.84,1.9 -7.22,5.7 -0.38,5.7 -0.76,9.49 -1.52,13.67 -11.39,-16.33 -29.62,-25.45 -48.23,-25.45 -6.84,0 -13.68,1.14 -20.13,3.8 -31.53,12.54 -47.1,59.25 -47.1,98l0 4.17c0.76,24.31 7.59,47.48 17.85,63.43 9.12,14.44 21.65,23.17 34.56,23.17 3.04,0 6.46,-0.38 9.88,-1.52 23.93,-8.35 42.16,-61.91 47.48,-80.14 0,1.52 -0.38,3.04 -0.38,4.56 -0.38,6.08 -0.76,11.01 -0.76,15.95 0,9.5 1.14,18.99 4.55,34.19 1.52,6.45 6.46,12.53 12.54,17.09 7.97,6.07 20.89,11.01 30,11.01 23.55,0 42.54,-20.51 49,-39.5 0.76,-3.04 1.14,-5.7 1.14,-8.36 0,-9.87 -5.32,-14.81 -9.49,-15.95 -3.42,12.92 -19,39.88 -32.67,39.88 -1.9,0 -3.42,-0.76 -5.32,-1.52zm-98.75 -9.11c-5.7,0 -11.01,-18.23 -11.01,-37.6 0,-31.15 9.11,-74.83 24.68,-91.16 4.56,-4.56 9.12,-6.46 13.3,-6.46 12.53,0 22.41,17.09 23.55,29.25 -6.84,30.76 -18.99,65.71 -31.15,86.6 -6.84,11.77 -13.67,19.37 -19.37,19.37zm223.71 75.96c-4.56,7.6 -13.29,10.64 -20.51,10.64 -7.22,0 -13.29,-2.66 -13.29,-6.84 0,-3.04 4.55,-6.46 6.83,-7.98 6.08,-4.55 29.25,-15.57 34.95,-17.85 -1.9,7.98 -4.18,15.2 -7.98,22.03zm-37.22 -75.58c-7.6,0 -13.3,-12.54 -13.3,-38.74 0,-7.6 0.38,-16.34 1.52,-26.21 3.8,-31.15 17.48,-71.41 34.19,-71.41 11.39,0 23.17,13.3 25.45,30.01 -6.08,22.03 -12.54,45.2 -21.27,64.57 -10.26,22.03 -19.37,41.78 -26.59,41.78zm47.1 28.48c0,0 -18.61,9.88 -30.39,15.58 -17.47,8.35 -36.84,17.85 -44.82,30.38 -2.28,4.18 -3.8,8.36 -3.8,12.54 0,20.89 30.77,25.07 44.44,25.07 20.13,0 42.54,-6.84 54.7,-21.27 12.53,-14.82 18.61,-37.23 21.27,-58.5 19.37,-10.25 36.84,-22.03 46.33,-34.94 3.8,-5.32 5.7,-10.64 5.7,-14.43 0,-7.98 -5.32,-13.3 -9.49,-15.58 -4.18,5.7 -10.26,12.16 -17.85,18.24 -6.46,5.31 -14.06,11.01 -22.03,16.71 0,-4.56 1.89,-54.32 3.03,-75.21 1.52,-26.96 0,-38.74 2.28,-54.31 0,-2.66 -0.38,-4.56 -1.52,-6.84 -5.69,-9.87 -22.41,-16.33 -33.42,-16.33 -4.18,0 -7.6,0.76 -7.98,2.66 -0.38,3.8 -1.14,8.35 -2.28,12.53 -9.49,-17.47 -28.1,-25.45 -41.02,-25.45 -23.17,0 -42.16,13.68 -54.69,33.43 -11.77,19.37 -18.23,44.06 -18.23,69.13 0,14.05 2.28,28.1 6.08,41.02 5.69,18.23 14.05,31.14 23.54,39.5 7.98,6.83 16.34,10.25 24.69,10.25 11.02,0 18.99,-6.45 25.07,-14.05 14.05,-17.47 25.45,-49.38 34.94,-78.24 0,7.21 -3.79,31.14 -3.79,49.37 0,19.75 -0.76,31.53 -0.76,38.74zm116.98 -41.4c0,-9.87 3.79,-24.68 9.11,-38.36 4.18,-11.01 9.12,-21.65 14.06,-29.62 10.25,15.57 28.86,25.82 50.13,25.82 21.65,0 39.5,-11.77 39.5,-31.14 0,-9.12 -4.17,-14.81 -10.63,-15.57 -3.04,12.15 -14.43,22.79 -26.59,22.79 -1.14,0 -2.66,0 -3.8,-0.38 -18.23,-3.8 -25.07,-23.55 -25.07,-23.55 0,0 15.58,-17.85 15.58,-28.11 0,-15.19 -16.33,-28.11 -28.49,-28.11 -3.04,0 -5.7,0.76 -7.98,2.66 -5.69,4.56 -9.87,12.92 -12.53,23.93 -1.14,4.94 -1.52,9.88 -1.52,13.67 0,2.66 0.38,5.7 0.76,8.36 -3.8,7.22 -7.98,17.85 -11.39,29.25l0 -14.82c0,-15.95 -0.76,-31.52 -8.36,-42.92 -6.08,-9.87 -15.95,-16.71 -26.97,-16.71 -2.66,0 -5.31,0.38 -7.97,1.14 0.76,4.18 1.52,10.26 1.52,18.23 0,8.74 -0.38,19.75 -0.76,31.91 -0.38,14.81 -0.76,35.7 -0.76,51.27 0,27.73 1.52,53.94 6.07,65.33 3.8,10.26 16.72,20.51 28.87,20.51 3.04,0 6.08,-0.38 8.74,-1.9 -1.14,-14.81 -1.52,-28.1 -1.52,-43.68zm238.9 21.65c-5.69,-2.65 -7.59,-16.33 -7.59,-34.18 0,-22.03 2.66,-51.28 4.93,-72.92 1.14,-11.4 1.9,-20.9 1.9,-24.69 -0.38,-16.72 -21.65,-30.39 -33.42,-30.39 -4.18,0 -6.84,1.9 -7.22,5.7 -0.38,5.7 -0.76,9.49 -1.52,13.67 -11.39,-16.33 -29.62,-25.45 -48.23,-25.45 -6.84,0 -13.68,1.14 -20.13,3.8 -31.53,12.54 -47.1,59.25 -47.1,98l0 4.17c0.76,24.31 7.59,47.48 17.85,63.43 9.12,14.44 21.65,23.17 34.56,23.17 3.04,0 6.46,-0.38 9.88,-1.52 23.93,-8.35 42.16,-61.91 47.48,-80.14 0,1.52 -0.38,3.04 -0.38,4.56 -0.38,6.08 -0.76,11.01 -0.76,15.95 0,9.5 1.14,18.99 4.55,34.19 1.52,6.45 6.46,12.53 12.54,17.09 7.97,6.07 20.89,11.01 30,11.01 23.55,0 42.54,-20.51 49,-39.5 0.76,-3.04 1.14,-5.7 1.14,-8.36 0,-9.87 -5.32,-14.81 -9.49,-15.95 -3.42,12.92 -19,39.88 -32.67,39.88 -1.9,0 -3.42,-0.76 -5.32,-1.52zm-98.75 -9.11c-5.7,0 -11.01,-18.23 -11.01,-37.6 0,-31.15 9.11,-74.83 24.68,-91.16 4.56,-4.56 9.12,-6.46 13.3,-6.46 12.53,0 22.41,17.09 23.55,29.25 -6.84,30.76 -18.99,65.71 -31.15,86.6 -6.84,11.77 -13.67,19.37 -19.37,19.37zm381.34 34.56c14.43,-4.18 34.18,-22.41 39.5,-41.02 0.76,-3.04 1.14,-5.7 1.14,-8.35 0,-9.5 -5.32,-14.82 -9.5,-15.58 -1.9,6.84 -8.73,20.51 -16.71,30.39 -5.32,6.46 -11.02,11.01 -16.71,11.01 -2.28,0 -4.18,-0.38 -6.08,-1.9 -5.32,-3.41 -6.46,-16.33 -6.46,-30.38 0,-14.81 1.52,-31.15 1.9,-38.74 0.76,-12.54 1.9,-24.69 1.9,-36.09 0,-8.35 -0.76,-15.95 -2.66,-23.16 -7.59,-25.07 -28.48,-33.81 -44.44,-33.81 -17.09,0 -28.86,16.33 -35.32,33.81 -7.22,18.99 -15.19,37.22 -21.65,63.05 0.38,-11.4 0.76,-19.38 0.76,-27.73 0,-14.05 -1.14,-28.49 -6.46,-41.4 -6.07,-14.81 -22.41,-27.35 -39.12,-27.35 -22.41,0 -30,20.89 -36.46,37.6 -10.26,26.21 -18.23,58.88 -19.37,64.19 2.66,-44.06 2.66,-47.85 2.66,-51.27 0,-14.44 -1.9,-25.07 -4.18,-30.01 -5.32,-11.39 -18.61,-17.09 -29.63,-17.09 -2.66,0 -5.31,0.38 -7.59,1.14 1.52,8.73 1.9,16.71 1.9,24.69 0,15.95 -1.9,31.52 -3.04,52.41 -1.14,16.33 -1.9,37.6 -1.9,54.7 0,8.73 0.38,16.33 0.76,21.65 1.14,14.43 22.41,25.06 35.7,25.06 2.66,0 4.56,-0.38 6.46,-1.14 0,-15.19 7.97,-50.13 17.85,-82.8 11.01,-36.08 24.31,-69.12 32.28,-69.12 7.98,0 9.5,19.75 9.5,42.92 0,8.35 0,17.47 -0.38,25.82 -0.76,22.03 -3.42,40.27 -3.42,53.56 0,4.56 0.38,8.35 1.14,11.77 3.42,12.92 16.33,18.23 28.49,18.23 4.56,0 8.73,-0.76 12.53,-1.89l0 -2.28c0,-13.3 8.74,-48.62 19.37,-81.66 7.22,-22.79 15.58,-44.06 22.79,-56.6 3.8,-6.83 7.6,-10.63 10.26,-10.63 4.17,0 6.45,4.55 7.97,10.25 1.9,7.22 1.9,15.57 1.9,18.61 0,20.51 -2.28,39.12 -2.28,57.74 0,12.53 1.14,24.3 4.18,36.08 5.7,21.65 25.83,36.46 44.06,36.46 3.04,0 5.7,-0.38 8.36,-1.14z"/>
  <path class="fil172" d="M620.47 245.46c16.75,0 30.34,13.62 30.34,30.36 0,16.75 -13.59,30.36 -30.34,30.36 -16.75,0 -30.35,-13.61 -30.35,-30.36 0,-16.74 13.6,-30.36 30.35,-30.36zm-121.72 79.02c37.63,0 68.13,30.51 68.13,68.15 0,37.64 -30.5,68.15 -68.13,68.15 -37.63,0 -68.13,-30.51 -68.13,-68.15 0,-37.64 30.5,-68.15 68.13,-68.15zm0 -48.81c64.58,0 116.94,52.36 116.94,116.96 0,64.59 -52.36,116.96 -116.94,116.96 -64.58,0 -116.94,-52.37 -116.94,-116.96 0,-64.6 52.36,-116.96 116.94,-116.96zm-94.4 -64.41l178.3 0c54.11,0 98.37,44.27 98.37,98.37l0 166.02c0,54.1 -44.26,98.37 -98.37,98.37l-178.3 0c-54.11,0 -98.37,-44.27 -98.37,-98.37l0 -166.02c0,-54.1 44.26,-98.37 98.37,-98.37zm-18.38 -37.38l215.06 0c65.26,0 118.64,53.38 118.64,118.64l0 200.24c0,65.26 -53.38,118.63 -118.64,118.63l-215.06 0c-65.26,0 -118.64,-53.37 -118.64,-118.63l0 -200.24c0,-65.26 53.38,-118.64 118.64,-118.64z"/>
 </g>
 <g id="Слой_x0020_1_0">
  <metadata id="CorelCorpID_1Corel-Layer"/>
 </g>
</svg>
