<?xml version="1.0" encoding="UTF-8"?>
<!DOCTYPE svg PUBLIC "-//W3C//DTD SVG 1.1//EN" "http://www.w3.org/Graphics/SVG/1.1/DTD/svg11.dtd">
<!-- Creator: CorelDRAW -->
<svg xmlns="http://www.w3.org/2000/svg" xml:space="preserve" width="25.4mm" height="7.9374mm" version="1.1" style="shape-rendering:geometricPrecision; text-rendering:geometricPrecision; image-rendering:optimizeQuality; fill-rule:evenodd; clip-rule:evenodd"
viewBox="0 0 2540 793.74"
 xmlns:xlink="http://www.w3.org/1999/xlink"
 xmlns:xodm="http://www.corel.com/coreldraw/odm/2003">
 <defs>
  <style type="text/css">
   <![CDATA[
    .fil0 {fill:#1DB9F2}
    .fil1 {fill:white;fill-rule:nonzero}
   ]]>
  </style>
 </defs>
 <g id="Слой_x0020_1">
  <metadata id="CorelCorpID_0Corel-Layer"/>
  <g id="telegram">
   <rect class="fil0" y="1.06" width="2540" height="793.75" rx="111.4" ry="101.6"/>
   <path class="fil1" d="M704.91 242.49c3.33,-21.64 -17.21,-38.71 -36.45,-30.27l-383 168.15c-13.78,6.05 -12.74,26.95 1.54,31.51l78.98 25.14c15.07,4.8 31.4,2.33 44.57,-6.78l178.06 -123.01c5.37,-3.72 11.23,3.93 6.65,8.64l-128.2 132.18c-12.41,12.79 -9.97,34.51 5.01,43.9l143.49 90c16.1,10.08 36.79,-0.05 39.82,-19.51l49.53 -319.95zm155.09 299.96l0 -285.95 -67.77 0 0 -30.6 167.02 0 0 30.6 -67.77 0 0 285.95 -31.48 0zm180.36 -132.92l87.44 0 0 -13.92c0,-20.47 -3.13,-34.39 -9.32,-41.61 -6.2,-7.28 -17.71,-10.93 -34.47,-10.93 -16.69,0 -28.13,3.65 -34.32,11.01 -6.2,7.36 -9.33,21.2 -9.33,41.53l0 13.92zm0 27.55l0 21.13c0,25.72 2.84,42.12 8.52,49.19 5.76,7.07 17.13,10.57 34.25,10.57 18,0 30.17,-2.63 36.66,-7.88 6.48,-5.31 9.76,-15.01 9.76,-29.22l0 -7.07 26.24 0 0 7.44c0,23.1 -5.69,39.71 -16.98,49.91 -11.3,10.13 -29.88,15.24 -55.6,15.24 -26.89,0 -45.77,-6.56 -56.7,-19.68 -10.85,-13.04 -16.32,-36.07 -16.32,-68.94l0 -52.54c0,-32.86 5.39,-55.82 16.25,-68.86 10.79,-13.05 29.88,-19.53 57.2,-19.53 27.04,0 45.91,6.48 56.55,19.46 10.71,12.89 16.03,35.92 16.03,68.93l0 31.85 -115.86 0zm184.29 105.37l0 -322.68 28.42 0 0 322.68 -28.42 0zm130.45 -132.92l87.44 0 0 -13.92c0,-20.47 -3.13,-34.39 -9.32,-41.61 -6.2,-7.28 -17.71,-10.93 -34.47,-10.93 -16.69,0 -28.13,3.65 -34.32,11.01 -6.2,7.36 -9.33,21.2 -9.33,41.53l0 13.92zm0 27.55l0 21.13c0,25.72 2.84,42.12 8.52,49.19 5.76,7.07 17.13,10.57 34.25,10.57 18,0 30.17,-2.63 36.66,-7.88 6.48,-5.31 9.76,-15.01 9.76,-29.22l0 -7.07 26.24 0 0 7.44c0,23.1 -5.69,39.71 -16.98,49.91 -11.3,10.13 -29.88,15.24 -55.6,15.24 -26.89,0 -45.77,-6.56 -56.7,-19.68 -10.85,-13.04 -16.32,-36.07 -16.32,-68.94l0 -52.54c0,-32.86 5.39,-55.82 16.25,-68.86 10.79,-13.05 29.88,-19.53 57.2,-19.53 27.04,0 45.91,6.48 56.55,19.46 10.71,12.89 16.03,35.92 16.03,68.93l0 31.85 -115.86 0zm292.8 -0.59l0 -22.59c0,-26.89 -3.42,-45.25 -10.2,-55.16 -6.71,-9.84 -18.36,-14.79 -34.91,-14.79 -13.84,0 -23.53,4.95 -29.15,14.79 -5.61,9.91 -8.45,27.84 -8.45,53.85l0 25.43c0,25.95 2.84,43.8 8.45,53.71 5.62,9.91 15.31,14.87 29.15,14.87 16.55,0 28.2,-4.96 34.91,-14.87 6.78,-9.91 10.2,-28.27 10.2,-55.24zm28.35 -115.72l0 229.55c0,27.04 -5.32,46.13 -16.03,57.2 -10.64,11.15 -28.93,16.69 -54.88,16.69 -22,0 -38.55,-3.79 -49.48,-11.44 -11,-7.58 -16.47,-19.09 -16.47,-34.47l0 -11.37 29.3 0c0,0.59 -0.07,1.46 -0.22,2.56 -0.15,1.16 -0.22,2.04 -0.22,2.62 0,9.25 2.92,15.96 8.67,20.11 5.76,4.16 15.09,6.2 28.06,6.2 16.61,0 27.98,-3.28 33.96,-9.84 5.97,-6.56 8.96,-21.94 8.96,-46.13l0 -36.73c-6.12,9.4 -13.55,16.4 -22.3,21.06 -8.74,4.59 -18.8,6.93 -30.24,6.93 -21.42,0 -36.95,-7.29 -46.49,-21.87 -9.55,-14.64 -14.28,-38.76 -14.28,-72.58l0 -21.57c0,-36.94 4.51,-62.96 13.62,-78.11 9.11,-15.16 24.41,-22.74 45.91,-22.74 12.1,0 22.66,2.48 31.7,7.36 9.04,4.88 17.05,12.46 24.19,22.81l0 -26.24 26.24 0zm106.54 221.68l-28.42 0 0 -221.68 26.31 0 0 28.86c5.25,-11.22 12.1,-19.46 20.62,-24.77 8.45,-5.32 18.88,-8.02 31.26,-8.02 16.25,0 27.99,4.74 35.2,14.21 7.21,9.4 10.79,24.78 10.79,46.13l0 17.05 -26.24 0 0 -10.42c0,-15.52 -2.11,-26.45 -6.41,-32.87 -4.3,-6.41 -11.51,-9.62 -21.64,-9.62 -14.94,0 -25.58,4.52 -31.92,13.56 -6.34,9.03 -9.55,24.92 -9.55,47.66l0 139.91zm210.17 -21.86c15.74,0 26.89,-3.5 33.45,-10.57 6.56,-7.07 9.84,-19.31 9.84,-36.8 0,-16.83 -2.77,-28.13 -8.24,-33.96 -5.46,-5.83 -15.96,-8.74 -31.48,-8.74 -15.74,0 -26.38,3.13 -31.77,9.47 -5.39,6.34 -8.09,19.09 -8.09,38.11 0,15.38 2.84,26.31 8.45,32.8 5.61,6.48 14.87,9.69 27.84,9.69zm42.41 21.86l0 -20.11c-4.95,8.74 -11.59,15.01 -19.82,18.8 -8.31,3.79 -19.46,5.68 -33.52,5.68 -18.51,0 -32.36,-4.66 -41.46,-13.92 -9.11,-9.25 -13.63,-23.46 -13.63,-42.63l0 -29.65c0,-18.66 4.95,-32.8 14.94,-42.34 9.98,-9.62 24.55,-14.43 43.79,-14.43 11.95,0 21.94,1.53 29.95,4.66 8.02,3.14 14.65,8.02 19.75,14.58l0 -34.54c0,-18.95 -2.55,-31.34 -7.58,-37.17 -5.03,-5.83 -15.15,-8.74 -30.38,-8.74 -12.54,0 -21.43,2.18 -26.75,6.48 -5.25,4.37 -7.87,11.52 -7.87,21.5l0 10.49 -29.29 0 0 -10.05c0,-19.1 5.17,-33.02 15.59,-41.83 10.42,-8.82 26.89,-13.27 49.55,-13.27 24.49,0 41.39,4.67 50.72,14 9.33,9.32 13.99,26.38 13.99,51.15l0 161.34 -27.98 0zm233.85 -192.75c5.39,-11.14 12.53,-19.38 21.28,-24.77 8.74,-5.39 19.38,-8.09 32.06,-8.09 19.6,0 33.67,5.9 42.19,17.63 8.53,11.74 12.83,31.48 12.83,59.39l0 148.59 -27.98 0 0 -140.72c0,-21.86 -2.63,-37.23 -7.8,-45.98 -5.18,-8.74 -13.92,-13.11 -26.31,-13.11 -15.23,0 -26.01,5.53 -32.35,16.68 -6.42,11.08 -9.62,30.68 -9.62,58.88l0 124.25 -28.42 0 0 -140.72c0,-22.29 -2.48,-37.74 -7.51,-46.27 -4.95,-8.52 -13.48,-12.82 -25.58,-12.82 -15.45,0 -26.38,5.61 -32.86,16.83 -6.49,11.29 -9.69,30.82 -9.69,58.73l0 124.25 -28.42 0 0 -221.68 26.3 0 0 25.73c5.4,-9.99 12.39,-17.42 20.92,-22.3 8.52,-4.88 18.73,-7.36 30.53,-7.36 13.26,0 24.12,2.77 32.5,8.31 8.38,5.53 14.36,13.7 17.93,24.55z"/>
  </g>
 </g>
</svg>
