<?xml version="1.0" encoding="UTF-8"?>
<!DOCTYPE svg PUBLIC "-//W3C//DTD SVG 1.1//EN" "http://www.w3.org/Graphics/SVG/1.1/DTD/svg11.dtd">
<!-- Creator: CorelDRAW -->
<svg xmlns="http://www.w3.org/2000/svg" xml:space="preserve" width="25.4mm" height="7.9374mm" version="1.1" style="shape-rendering:geometricPrecision; text-rendering:geometricPrecision; image-rendering:optimizeQuality; fill-rule:evenodd; clip-rule:evenodd"
viewBox="0 0 2540 793.74"
 xmlns:xlink="http://www.w3.org/1999/xlink"
 xmlns:xodm="http://www.corel.com/coreldraw/odm/2003">
 <defs>
  <style type="text/css">
   <![CDATA[
    .fil0 {fill:#7D3DAF}
    .fil1 {fill:white;fill-rule:nonzero}
   ]]>
  </style>
 </defs>
 <g id="Слой_x0020_1">
  <metadata id="CorelCorpID_0Corel-Layer"/>
  <g id="viber">
   <rect class="fil0" y="1.06" width="2540" height="793.75" rx="111.4" ry="101.6"/>
   <path class="fil1" d="M714.92 304.69l-0.14 -0.57c-11.34,-45.84 -62.44,-95.01 -109.37,-105.25l-0.54 -0.09c-75.91,-14.49 -152.89,-14.49 -228.78,0l-0.55 0.09c-46.92,10.24 -98.02,59.41 -109.38,105.25l-0.12 0.57c-14.01,63.99 -14.01,128.9 0,192.89l0.12 0.57c10.87,43.88 58.17,90.78 103.35,103.69l0 51.16c0,18.51 22.57,27.61 35.41,14.25l51.83 -53.88c11.24,0.63 22.49,0.98 33.73,0.98 38.21,0 76.45,-3.62 114.39,-10.85l0.54 -0.12c46.93,-10.22 98.03,-59.41 109.37,-105.23l0.14 -0.57c14.01,-63.99 14.01,-128.9 0,-192.89zm-41.02 183.62c-7.56,29.91 -46.38,67.07 -77.21,73.93 -40.36,7.68 -81.05,10.97 -121.68,9.83 -0.8,-0.01 -1.59,0.3 -2.14,0.87 -5.78,5.93 -37.86,38.86 -37.86,38.86l-40.26 41.3c-2.94,3.08 -8.1,0.99 -8.1,-3.24l0 -84.76c0,-1.4 -1.01,-2.59 -2.37,-2.86 -0.01,0 -0.02,0 -0.03,0 -30.85,-6.86 -69.63,-44.02 -77.21,-73.93 -12.61,-57.85 -12.61,-116.51 0,-174.35 7.58,-29.89 46.38,-67.08 77.21,-73.94 70.49,-13.41 141.97,-13.41 212.44,0 30.85,6.86 69.65,44.05 77.21,73.94 12.63,57.86 12.63,116.5 0,174.35zm-116.35 39.11c-4.73,-1.43 -9.26,-2.4 -13.45,-4.14 -43.48,-18.04 -83.49,-41.31 -115.17,-76.97 -18.02,-20.29 -32.12,-43.18 -44.04,-67.41 -5.66,-11.51 -10.42,-23.44 -15.29,-35.3 -4.43,-10.83 2.11,-22 8.98,-30.16 6.43,-7.64 14.72,-13.51 23.7,-17.81 7.01,-3.37 13.93,-1.43 19.06,4.5 11.07,12.85 21.23,26.36 29.46,41.26 5.06,9.15 3.68,20.35 -5.5,26.59 -2.23,1.5 -4.26,3.28 -6.34,5 -1.83,1.51 -3.53,3 -4.78,5.03 -2.29,3.72 -2.39,8.11 -0.92,12.15 11.3,31.1 30.37,55.27 61.67,68.29 5.02,2.09 10.04,4.51 15.81,3.83 9.66,-1.11 12.79,-11.71 19.56,-17.26 6.62,-5.4 15.07,-5.47 22.21,-0.96 7.13,4.51 14.03,9.36 20.91,14.25 6.75,4.81 13.46,9.51 19.69,14.99 5.96,5.26 8.04,12.17 4.68,19.31 -6.18,13.11 -15.14,24 -28.09,30.94 -3.66,1.97 -8.03,2.6 -12.15,3.87 -4.73,-1.43 4.12,-1.27 0,0zm-66.95 -246.77c56.87,1.59 103.56,39.33 113.57,95.55 1.7,9.57 2.31,19.36 3.07,29.1 0.32,4.08 -1.98,7.97 -6.4,8.01 -4.58,0.06 -6.62,-3.75 -6.91,-7.83 -0.59,-8.1 -0.99,-16.23 -2.11,-24.25 -5.89,-42.36 -39.68,-77.41 -81.83,-84.92 -6.35,-1.14 -12.82,-1.43 -19.26,-2.11 -4.06,-0.42 -9.38,-0.67 -10.27,-5.72 -0.76,-4.23 2.81,-7.6 6.83,-7.81 1.11,-0.07 2.21,-0.02 3.31,-0.02 56.87,1.59 -1.1,0 0,0zm86.41 112.03c-0.09,0.7 -0.15,2.36 -0.55,3.95 -1.51,5.7 -10.17,6.42 -12.17,0.66 -0.58,-1.71 -0.68,-3.65 -0.68,-5.49 -0.02,-12.04 -2.65,-24.08 -8.71,-34.56 -6.25,-10.76 -15.78,-19.82 -26.96,-25.3 -6.77,-3.31 -14.09,-5.37 -21.5,-6.61 -3.25,-0.53 -6.51,-0.84 -9.76,-1.31 -3.96,-0.54 -6.05,-3.06 -5.87,-6.95 0.17,-3.64 2.83,-6.26 6.81,-6.04 13.04,0.75 25.64,3.55 37.25,9.72 23.58,12.48 37.07,32.2 41,58.53 0.17,1.2 0.47,2.38 0.56,3.57 0.21,2.97 0.34,5.92 0.58,9.83 -0.09,0.7 -0.24,-3.91 0,0zm-35.35 -1.38c-4.77,0.08 -7.32,-2.54 -7.81,-6.91 -0.33,-3.04 -0.62,-6.13 -1.34,-9.09 -1.43,-5.83 -4.51,-11.22 -9.42,-14.79 -2.32,-1.69 -4.94,-2.92 -7.7,-3.72 -3.48,-1 -7.1,-0.73 -10.59,-1.57 -3.77,-0.93 -5.87,-4 -5.28,-7.53 0.56,-3.23 3.67,-5.76 7.22,-5.51 22.04,1.61 37.8,12.99 40.04,38.95 0.16,1.83 0.35,3.76 -0.05,5.51 -0.7,3 -2.92,4.51 -5.07,4.66 -4.77,0.08 2.15,-0.15 0,0zm662.27 -165.7c-11.28,16.98 -20.52,34.8 -27.61,53.36l-20.8 59.88 -73.68 198.76c-8.58,23.32 -18.56,46.08 -30.04,68.28 -5.87,10.91 -14.08,16.42 -24.71,16.42 -13.99,0 -23.88,-7.09 -29.57,-21.27 -21.92,-55.4 -46.45,-135.15 -73.31,-239.25l-21.55 -75.17c-10.73,-37.87 -16.14,-62.68 -16.14,-74.34 0,-8.21 2.9,-14.93 8.77,-20.24 5.23,-4.95 11.57,-7.37 19.03,-7.37 13.9,0 22.76,7.46 26.77,22.38l10.07 47.57 26.21 93c17.44,67.81 34.51,126.19 51.02,175.26l1.68 -4.39 73.41 -198.48 23.22 -66.97c10.45,-27.05 21.46,-47.48 33.21,-61.38 5.97,-7.27 13.06,-10.91 21.36,-10.91 7.27,0 13.8,2.8 19.59,8.3 5.69,5.6 8.58,12.31 8.58,20.15 0,5.5 -1.87,10.91 -5.51,16.41zm121.63 29.01c-8.77,0 -16.42,-3.08 -22.76,-9.23 -6.44,-6.25 -9.61,-13.71 -9.61,-22.39 0,-8.76 3.17,-16.13 9.61,-22.38 6.34,-6.16 13.99,-9.24 22.76,-9.24 8.67,0 16.23,3.08 22.57,9.24 6.25,6.25 9.42,13.62 9.42,22.38 0,8.68 -3.17,16.14 -9.42,22.39 -6.34,6.15 -13.9,9.23 -22.57,9.23zm12.4 221.62c0,11.01 0.28,27.33 0.84,49.06 0.56,21.73 0.84,38.06 0.84,48.97 0,8.02 -2.42,14.55 -7.37,19.68 -4.94,5.13 -11.47,7.65 -19.49,7.65 -7.83,0 -14.27,-2.52 -19.31,-7.65 -5.03,-5.13 -7.55,-11.66 -7.55,-19.68 0,-10.91 -0.28,-27.24 -0.84,-48.97 -0.56,-21.73 -0.84,-38.05 -0.84,-49.06 0,-17.07 0.84,-38.43 2.52,-63.99 1.68,-25.55 2.52,-46.91 2.52,-63.98 0,-8.21 2.51,-14.83 7.55,-19.96 5.04,-5.13 11.47,-7.65 19.31,-7.65 7.83,0 14.27,2.52 19.31,7.65 5.03,5.13 7.55,11.75 7.55,19.96 0,17.07 -0.84,38.43 -2.52,63.98 -1.68,25.56 -2.52,46.92 -2.52,63.99zm245.04 135.99c-27.89,0 -53.17,-5.5 -75.93,-16.51 -5.78,8.77 -12.87,13.15 -21.26,13.15 -6.91,0 -12.78,-2.42 -17.63,-7.27 -4.85,-4.76 -7.28,-10.82 -7.28,-18.19 0,-4.66 0.28,-11.75 0.75,-20.99 0.46,-9.32 0.65,-16.32 0.65,-21.08 0,-19.3 -0.47,-48.22 -1.49,-86.83 -1.03,-38.52 -1.49,-67.44 -1.49,-86.75 0,-13.34 0.09,-38.52 0.28,-75.55 0.18,-37.12 0.28,-62.4 0.28,-75.92 0,-10.92 2.23,-20.71 6.81,-29.48 6.06,-11.1 14.36,-16.69 24.99,-16.69 13.71,0 20.62,7.93 20.62,23.78 0,2.52 -0.47,6.25 -1.4,11.1 -0.84,4.94 -1.31,8.68 -1.31,11.19l-0.84 59.79 -0.56 69.68c15.86,-10.82 30.88,-18.84 45.15,-24.25 14.27,-5.32 27.7,-8.03 40.2,-8.03 39.08,0 70.79,15.02 95.23,45.15 22.85,28.26 34.32,63.05 34.32,104.28 0,41.6 -13.33,76.86 -40.1,105.86 -26.77,29.01 -60.07,43.56 -99.99,43.56zm10.35 -247.36c-14.92,0 -30.22,4.2 -45.89,12.59 -7.65,4.2 -20.71,13.25 -39.27,27.15l-0.56 47.38 0.28 42.72 0.28 44.96c8.77,4.01 20.99,9.14 36.84,15.29 11.29,3.45 23.88,5.23 37.97,5.23 26.3,0 48.03,-9.33 64.92,-27.99 16.88,-18.56 25.37,-41.78 25.37,-69.58 0,-27.14 -6.81,-49.9 -20.43,-68.18 -14.74,-19.68 -34.61,-29.57 -59.51,-29.57zm346.6 247.92c-41.23,0 -74.53,-10.26 -99.99,-30.87 -27.89,-22.67 -41.79,-54.57 -41.79,-95.51 0,-47.29 11.48,-86.93 34.52,-118.93 24.9,-34.97 58.29,-52.42 100.08,-52.42 30.22,0 54.94,5.13 74.15,15.3 23.51,12.59 35.26,31.9 35.26,57.92 0,18.19 -10.36,34.79 -30.97,49.72 -9.14,6.53 -28.45,16.69 -58.01,30.59l-104.66 49.34c10.17,15.11 22.95,26.49 38.15,34.14 15.2,7.65 32.93,11.47 53.17,11.47 12.5,0 27.33,-2.33 44.21,-7.09 21.54,-6.06 35.35,-13.89 41.51,-23.59 6.24,-9.8 12.87,-14.65 19.96,-14.65 6.43,0 12.12,2.43 17.06,7.18 5.04,4.86 7.56,10.45 7.56,16.79 0,20.15 -16.32,37.5 -48.88,52.05 -27.88,12.41 -54.93,18.56 -81.33,18.56zm-7.27 -248.48c-22.3,0 -40.77,8.58 -55.5,25.75 -14.83,17.25 -25.84,43.09 -33.11,77.69l83.94 -39.83c33.02,-16.04 56.53,-29.94 70.52,-41.78 -15.67,-14.55 -37.69,-21.83 -65.85,-21.83zm424.11 34.7c-1.31,22.76 -10.35,34.14 -27.24,34.14 -15.57,0 -23.41,-9.05 -23.41,-27.14 0,-3.46 -0.28,-9.89 -0.84,-19.22l-0.84 -23.04c-28.82,3.45 -51.86,11.57 -69.21,24.35 -16.23,11.84 -29.75,29.66 -40.48,53.54l0.56 149.7c0,18.37 -8.95,27.61 -26.95,27.61 -15.95,0 -23.97,-9.24 -23.97,-27.61l0 -191.77c0,-6.06 0.18,-15.02 0.56,-27.05 0.37,-12.03 0.55,-21.08 0.55,-27.05 0,-18.37 8.03,-27.61 23.98,-27.61 17.81,0 26.77,15.11 26.95,45.33 35.07,-33.58 73.87,-50.36 116.59,-50.36 14.74,0 25.75,5.59 33.12,16.69 7.27,11.1 10.91,27.89 10.91,50.28 0,9.51 -0.09,15.85 -0.28,19.21z"/>
  </g>
 </g>
</svg>
