<?xml version="1.0" encoding="UTF-8"?>
<!DOCTYPE svg PUBLIC "-//W3C//DTD SVG 1.1//EN" "http://www.w3.org/Graphics/SVG/1.1/DTD/svg11.dtd">
<!-- Creator: CorelDRAW -->
<svg xmlns="http://www.w3.org/2000/svg" xml:space="preserve" width="25.4mm" height="7.9374mm" version="1.1" style="shape-rendering:geometricPrecision; text-rendering:geometricPrecision; image-rendering:optimizeQuality; fill-rule:evenodd; clip-rule:evenodd"
viewBox="0 0 2540 793.74"
 xmlns:xlink="http://www.w3.org/1999/xlink"
 xmlns:xodm="http://www.corel.com/coreldraw/odm/2003">
 <defs>
  <style type="text/css">
   <![CDATA[
    .fil0 {fill:#33CC66}
    .fil1 {fill:white}
   ]]>
  </style>
 </defs>
 <g id="Слой_x0020_1">
  <metadata id="CorelCorpID_0Corel-Layer"/>
  <g id="whatsapp">
   <rect class="fil0" y="1.05" width="2540" height="793.75" rx="111.4" ry="101.6"/>
   <path class="fil1" d="M277.74 535.5l-25.97 95.86 97.6 -25.91c40.54,26.52 89.02,41.94 141.09,41.94 142.57,0 258.14,-115.56 258.14,-258.13 0,-142.57 -115.57,-258.13 -258.14,-258.13 -142.57,0 -258.14,115.56 -258.14,258.13 0,54.3 16.78,104.67 45.42,146.24zm242 -9.85c31.95,10.82 57.79,18.26 89.99,3.5 20.77,-9.52 33.89,-22.84 37.91,-45.61 4.65,-26.19 3.04,-23.49 -18.26,-32.7 -16.09,-6.97 -31.96,-14.73 -47.93,-22.03 -14.68,-6.68 -14.2,-2.17 -24.51,10.48 -3.01,3.69 -5.04,6.26 -7.11,8.86 -3.18,3.99 -6.73,8.33 -10.3,12.16 -7.57,8.16 -11.23,6.87 -18.83,4.23 -39.35,-13.7 -83.45,-50.58 -103.95,-86.82 -3.95,-7 -5.86,-10.39 0.81,-19.29 3.15,-4.19 6.76,-8.44 10.13,-12.3 2.19,-2.5 4.37,-4.96 7.46,-8.56 10.61,-12.39 15.14,-12.75 5.93,-26 -10.01,-14.42 -20.49,-28.64 -30.21,-43.24 -12.86,-19.32 -10.48,-21.38 -35.43,-12.14 -21.67,8.01 -32.45,23.3 -38.12,45.43 -8.78,34.33 3.14,58.42 19.48,87.92 34.91,63.08 94.66,113 162.94,136.11zm423.63 -11.89l-50.14 -213.24 44.38 0 31.72 146.48 38.91 -146.48 51.33 0 37.22 148.96 32.47 -148.96 43.33 0 -51.38 213.24 -46.11 0 -42.04 -159.43 -42.34 159.43 -47.35 0zm287.57 -213.24l0 79.02c13.25,-15.73 29.14,-23.62 47.55,-23.62 9.48,0 18.02,1.73 25.61,5.21 7.6,3.52 13.31,7.94 17.18,13.4 3.87,5.41 6.5,11.42 7.89,18.02 1.44,6.6 2.13,16.82 2.13,30.67l0 90.54 -40.8 0 0 -81.5c0,-16.18 -0.79,-26.46 -2.33,-30.83 -1.59,-4.37 -4.37,-7.84 -8.34,-10.37 -3.97,-2.58 -8.93,-3.87 -14.94,-3.87 -6.85,0 -12.95,1.63 -18.37,4.96 -5.41,3.28 -9.33,8.24 -11.81,14.89 -2.53,6.6 -3.77,16.43 -3.77,29.39l0 77.33 -40.8 0 0 -213.24 40.8 0zm167.95 106.32l-36.93 -6.55c4.17,-15.09 11.37,-26.26 21.54,-33.5 10.18,-7.25 25.32,-10.87 45.37,-10.87 18.22,0 31.82,2.13 40.75,6.45 8.89,4.32 15.19,9.78 18.82,16.43 3.62,6.65 5.46,18.81 5.46,36.58l-0.6 47.65c0,13.55 0.64,23.58 1.94,30.03 1.29,6.45 3.72,13.35 7.29,20.7l-40.5 0c-1.04,-2.68 -2.38,-6.65 -3.92,-11.91 -0.65,-2.43 -1.14,-4.02 -1.44,-4.77 -6.95,6.85 -14.4,11.96 -22.34,15.39 -7.94,3.42 -16.38,5.16 -25.36,5.16 -15.84,0 -28.35,-4.32 -37.48,-12.95 -9.13,-8.59 -13.7,-19.51 -13.7,-32.71 0,-8.69 2.09,-16.48 6.26,-23.33 4.17,-6.8 9.97,-12.07 17.52,-15.69 7.49,-3.62 18.31,-6.8 32.46,-9.53 19.06,-3.57 32.31,-6.95 39.66,-10.03l0 -4.12c0,-7.94 -1.94,-13.6 -5.81,-17.02 -3.92,-3.38 -11.27,-5.06 -22.04,-5.06 -7.29,0 -12.95,1.44 -17.02,4.36 -4.12,2.88 -7.4,8 -9.93,15.29zm54.8 33.06c-5.21,1.74 -13.5,3.82 -24.87,6.25 -11.32,2.44 -18.76,4.82 -22.24,7.1 -5.31,3.82 -7.99,8.59 -7.99,14.4 0,5.76 2.14,10.67 6.41,14.84 4.26,4.17 9.68,6.25 16.28,6.25 7.34,0 14.39,-2.43 21.09,-7.24 4.92,-3.73 8.19,-8.19 9.73,-13.55 1.04,-3.48 1.59,-10.13 1.59,-19.91l0 -8.14zm146.91 -80.71l0 32.46 -28 0 0 62.6c0,12.7 0.25,20.1 0.8,22.18 0.54,2.09 1.73,3.83 3.67,5.22 1.88,1.34 4.17,2.03 6.9,2.03 3.82,0 9.28,-1.29 16.48,-3.92l3.42 31.77c-9.48,4.07 -20.2,6.1 -32.21,6.1 -7.35,0 -13.95,-1.24 -19.86,-3.72 -5.9,-2.48 -10.22,-5.71 -12.95,-9.63 -2.78,-3.97 -4.67,-9.28 -5.76,-16.03 -0.84,-4.77 -1.29,-14.4 -1.29,-28.94l0 -67.66 -18.76 0 0 -32.46 18.76 0 0 -30.67 40.8 -24.13 0 54.8 28 0zm9.85 111.09l41.1 -6.26c1.74,7.9 5.26,13.9 10.62,17.97 5.31,4.12 12.81,6.16 22.39,6.16 10.57,0 18.51,-1.94 23.87,-5.81 3.58,-2.73 5.36,-6.4 5.36,-10.97 0,-3.08 -0.99,-5.66 -2.93,-7.69 -2.03,-1.94 -6.6,-3.78 -13.65,-5.41 -33,-7.3 -53.9,-13.95 -62.74,-19.96 -12.26,-8.39 -18.36,-20 -18.36,-34.84 0,-13.45 5.31,-24.72 15.88,-33.85 10.57,-9.14 26.95,-13.7 49.14,-13.7 21.15,0 36.88,3.47 47.16,10.37 10.27,6.95 17.37,17.17 21.24,30.72l-38.42 7.15c-1.63,-6.05 -4.81,-10.72 -9.43,-13.95 -4.61,-3.22 -11.22,-4.81 -19.8,-4.81 -10.82,0 -18.57,1.49 -23.28,4.52 -3.13,2.13 -4.67,4.91 -4.67,8.29 0,2.92 1.34,5.41 4.07,7.44 3.72,2.73 16.48,6.55 38.32,11.52 21.84,4.96 37.08,11.02 45.72,18.21 8.58,7.25 12.85,17.43 12.85,30.43 0,14.15 -5.9,26.36 -17.77,36.53 -11.81,10.18 -29.33,15.29 -52.56,15.29 -21.05,0 -37.73,-4.27 -50.04,-12.75 -12.26,-8.49 -20.3,-20.01 -24.07,-34.6zm368.48 43.48l-46.5 0 -18.42 -48.54 -85.52 0 -17.72 48.54 -45.67 0 82.79 -213.24 45.62 0 85.42 213.24zm-78.92 -84.58l-29.63 -78.92 -28.79 78.92 58.42 0zm96.28 -69.99l38.12 0 0 22.69c4.97,-7.75 11.62,-14 20.06,-18.82 8.43,-4.76 17.82,-7.14 28.09,-7.14 17.92,0 33.16,7.04 45.67,21.14 12.5,14.05 18.76,33.7 18.76,58.82 0,25.86 -6.31,45.91 -18.91,60.26 -12.61,14.34 -27.9,21.49 -45.87,21.49 -8.53,0 -16.28,-1.69 -23.23,-5.11 -6.9,-3.38 -14.24,-9.18 -21.89,-17.42l0 77.33 -40.8 0 0 -213.24zm40.21 74.9c0,17.43 3.42,30.28 10.32,38.62 6.85,8.29 15.24,12.46 25.07,12.46 9.48,0 17.37,-3.82 23.68,-11.47 6.3,-7.64 9.43,-20.15 9.43,-37.57 0,-16.28 -3.23,-28.34 -9.73,-36.24 -6.46,-7.89 -14.5,-11.81 -24.08,-11.81 -9.97,0 -18.26,3.87 -24.81,11.61 -6.61,7.75 -9.88,19.21 -9.88,34.4zm137.57 -74.9l38.12 0 0 22.69c4.97,-7.75 11.62,-14 20.06,-18.82 8.43,-4.76 17.82,-7.14 28.09,-7.14 17.92,0 33.16,7.04 45.67,21.14 12.5,14.05 18.76,33.7 18.76,58.82 0,25.86 -6.31,45.91 -18.91,60.26 -12.61,14.34 -27.9,21.49 -45.87,21.49 -8.53,0 -16.28,-1.69 -23.23,-5.11 -6.9,-3.38 -14.24,-9.18 -21.89,-17.42l0 77.33 -40.8 0 0 -213.24zm40.21 74.9c0,17.43 3.42,30.28 10.32,38.62 6.85,8.29 15.24,12.46 25.07,12.46 9.48,0 17.37,-3.82 23.68,-11.47 6.3,-7.64 9.43,-20.15 9.43,-37.57 0,-16.28 -3.23,-28.34 -9.73,-36.24 -6.46,-7.89 -14.5,-11.81 -24.08,-11.81 -9.97,0 -18.26,3.87 -24.81,11.61 -6.61,7.75 -9.88,19.21 -9.88,34.4z"/>
  </g>
 </g>
</svg>
